HIERARCHY
ROOT Hips
{
	OFFSET 0.00000 0.00000 0.00000
	CHANNELS 6 Xposition Yposition Zposition Zrotation Yrotation Xrotation 
	JOINT LHipJoint
	{
		OFFSET 0 0 0
		CHANNELS 3 Zrotation Yrotation Xrotation
		JOINT LeftHip
		{
			OFFSET 1.37590 -1.78394 0.89329
			CHANNELS 3 Zrotation Yrotation Xrotation
			JOINT LeftKnee
			{
				OFFSET 2.47928 -6.81178 0.00000
				CHANNELS 3 Zrotation Yrotation Xrotation
				JOINT LeftAnkle
				{
					OFFSET 2.63345 -7.23535 0.00000
					CHANNELS 3 Zrotation Yrotation Xrotation
					JOINT LeftToe
					{
						OFFSET 0.23938 -0.65768 2.27012
						CHANNELS 3 Zrotation Yrotation Xrotation
						End Site
						{
							OFFSET 0.00000 -0.00000 1.18363
						}
					}
				}
			}
		}
	}
	JOINT RHipJoint
	{
		OFFSET 0 0 0
		CHANNELS 3 Zrotation Yrotation Xrotation
		JOINT RightHip
		{
			OFFSET -1.33617 -1.78394 0.89329
			CHANNELS 3 Zrotation Yrotation Xrotation
			JOINT RightKnee
			{
				OFFSET -2.56922 -7.05888 0.00000
				CHANNELS 3 Zrotation Yrotation Xrotation
				JOINT RightAnkle
				{
					OFFSET -2.56568 -7.04915 0.00000
					CHANNELS 3 Zrotation Yrotation Xrotation
					JOINT RightToe
					{
						OFFSET -0.27533 -0.75646 2.18105
						CHANNELS 3 Zrotation Yrotation Xrotation
						End Site
						{
							OFFSET -0.00000 -0.00000 1.15233
						}
					}
				}
			}
		}
	}
	JOINT lowerback
	{
		OFFSET 0 0 0
		CHANNELS 3 Zrotation Yrotation Xrotation
		JOINT Chest
		{
			OFFSET 0.06190 2.15152 -0.00935
			CHANNELS 3 Zrotation Yrotation Xrotation
			JOINT Chest2
			{
				OFFSET 0.06334 2.15332 0.00872
				CHANNELS 3 Zrotation Yrotation Xrotation
				JOINT lowerneck
				{
					OFFSET 0 0 0
					CHANNELS 3 Zrotation Yrotation Xrotation
					JOINT Neck
					{
						OFFSET -0.04202 1.66908 0.23524
						CHANNELS 3 Zrotation Yrotation Xrotation
						JOINT Head
						{
							OFFSET 0.07510 1.69357 -0.24440
							CHANNELS 3 Zrotation Yrotation Xrotation
							End Site
							{
								OFFSET 0.02556 1.71719 -0.11000
							}
						}
					}
				}
				JOINT LeftCollar
				{
					OFFSET 0 0 0
					CHANNELS 3 Zrotation Yrotation Xrotation
					JOINT LeftShoulder
					{
						OFFSET 3.67168 1.26306 -0.41342
CHANNELS 3 Zrotation Xrotation Yrotation
						JOINT LeftElbow
						{
OFFSET 0 -4.685100 -0.000000
CHANNELS 3 Zrotation Xrotation Yrotation
							JOINT LeftWrist
							{
OFFSET 0 -3.396260 -0.000000
CHANNELS 3 Zrotation Xrotation Yrotation
								JOINT lhand
								{
									OFFSET 0 0 0
CHANNELS 3 Zrotation Xrotation Yrotation
									JOINT LFingers
									{
OFFSET 0 -0.486080 -0.000000
CHANNELS 3 Zrotation Xrotation Yrotation
										End Site
										{
OFFSET 0 -0.391890 -0.000000
										}
									}
								}
								JOINT LThumb
								{
OFFSET 0 0.000000 0.000000
CHANNELS 3 Zrotation Xrotation Yrotation
									End Site
									{
OFFSET 0 -0.397870 0.397870
									}
								}
							}
						}
					}
				}
				JOINT RightCollar
				{
					OFFSET 0 0 0
					CHANNELS 3 Zrotation Yrotation Xrotation
					JOINT RightShoulder
					{
						OFFSET -3.04136 1.42992 -0.76390
CHANNELS 3 Zrotation Xrotation Yrotation
						JOINT RightElbow
						{
OFFSET 0 -5.555760 -0.000000
CHANNELS 3 Zrotation Xrotation Yrotation
							JOINT RightWrist
							{
OFFSET 0 -3.327740 -0.000000
CHANNELS 3 Zrotation Xrotation Yrotation
								JOINT rhand
								{
									OFFSET 0 0 0
CHANNELS 3 Zrotation Xrotation Yrotation
									JOINT RFingers
									{
OFFSET 0 -0.507630 -0.000000
CHANNELS 3 Zrotation Xrotation Yrotation
										End Site
										{
OFFSET 0 -0.409260 -0.000000
										}
									}
								}
								JOINT RThumb
								{
OFFSET 0 0.000000 0.000000
CHANNELS 3 Zrotation Xrotation Yrotation
									End Site
									{
OFFSET 0 -0.415510 0.415510
									}
								}
							}
						}
					}
				}
			}
		}
	}
}
MOTION
Frames: 11
Frame Time: 0.008333333333333333
42.940200 17.758900 5.393300 -116.934000 -83.016900 128.145000 0.000000 0.000000 0.000000 -8.612200 -6.141800 -6.069800 0.349800 3.800100 10.515000 0.295700 5.579000 -13.835500 0.124100 -2.271300 -6.256000 0.000000 0.000000 0.000000 29.366200 8.635500 -9.009000 -0.737500 -5.486200 15.300700 -0.179400 -7.545600 -14.015300 -0.480300 -4.444200 12.329800 4.789600 -2.302700 -5.939400 3.472700 -3.465300 -3.717500 0.714800 -1.847300 -0.575100 -13.060300 -9.507200 -13.318600 8.994500 -11.881100 13.308900 3.690100 -5.655700 7.608700 0.000000 -0.000000 0.000000 -2.390000 2.801400 -2.128400 13.310400 -21.740300 2.567100 14.362200 33.116000 -19.890100 0.000000 0.000000 0.000000 -7.125000 0.000000 0.000000 -13.892500 49.943000 1.722200 0.000000 -0.000000 0.000000 -6.001800 -2.071900 17.785300 -13.227800 -21.620100 -2.536600 -14.790300 19.338100 24.441500 0.000000 0.000000 0.000000 7.125000 0.000000 -0.000000 15.484300 54.483200 -3.674300
42.924220 17.757764 5.379259 -117.327661 -82.980025 128.576881 0.000000 0.000000 0.000000 -8.559205 -6.137437 -6.133538 0.361323 3.861209 10.686595 0.305687 5.572194 -13.977640 0.127486 -2.301424 -6.339395 0.000000 0.000000 0.000000 29.411318 8.537514 -9.023017 -0.736618 -5.482998 15.291357 -0.190712 -7.357498 -13.984263 -0.475311 -4.421387 12.265318 4.788464 -2.252931 -5.847434 3.454255 -3.390663 -3.742724 0.705488 -1.811526 -0.651651 -12.991344 -9.566311 -13.544696 8.955907 -11.952210 13.465844 3.646815 -5.682327 7.700225 0.000000 0.000000 0.000000 -2.319006 2.797749 -2.237683 13.312141 -21.742791 2.567747 14.311211 33.108868 -19.883654 0.000000 0.000000 0.000000 -7.125000 0.000000 0.000000 -13.938594 49.928680 1.723117 0.000000 0.000000 0.000000 -5.915246 -2.061637 17.681613 -13.192413 -21.568455 -2.523630 -14.746130 19.294649 24.245216 0.000000 0.000000 0.000000 7.125000 0.000000 0.000000 15.429581 54.283564 -3.584949
42.907103 17.755378 5.362932 -117.859992 -82.877639 129.158217 0.000000 0.000000 0.000000 -8.426972 -6.126646 -6.232912 0.375868 3.937546 10.901091 0.315197 5.601279 -14.142309 0.129527 -2.320131 -6.391159 0.000000 0.000000 0.000000 29.514445 8.490520 -9.028768 -0.736557 -5.482849 15.290884 -0.203604 -7.150537 -13.961910 -0.482918 -4.456259 12.364025 4.773264 -2.171158 -5.806261 3.460178 -3.279084 -3.696728 0.725525 -1.753931 -0.623102 -13.124597 -9.549870 -14.086733 9.473540 -11.957403 13.807312 3.815775 -5.632908 7.950695 0.000000 0.000000 0.000000 -2.253289 2.627475 -2.272675 13.275992 -21.690221 2.554387 14.265986 33.139232 -19.710800 0.000000 0.000000 0.000000 -7.125000 0.000000 0.000000 -13.915554 49.751076 1.658516 0.000000 0.000000 0.000000 -5.823980 -2.096328 17.604792 -13.249470 -21.651619 -2.544578 -14.588026 19.136768 24.043529 0.000000 0.000000 0.000000 7.125000 0.000000 0.000000 15.486707 54.057427 -3.512437
42.889812 17.751734 5.347251 -118.064372 -82.786241 129.390157 0.000000 0.000000 0.000000 -8.300667 -6.134164 -6.274005 0.389787 4.008838 11.101631 0.331394 5.569920 -14.348302 0.121685 -2.248458 -6.192771 0.000000 0.000000 0.000000 29.648855 8.477165 -8.989029 -0.739221 -5.492507 15.318801 -0.218558 -6.989708 -14.022219 -0.495542 -4.513288 12.525412 4.806019 -2.119770 -5.901121 3.469234 -3.222566 -3.603493 0.711823 -1.721833 -0.474089 -13.256980 -9.583641 -14.027015 9.743373 -12.009901 13.540962 3.921759 -5.643780 7.885425 0.000000 0.000000 0.000000 -2.200262 2.383538 -2.244030 13.218930 -21.607166 2.533316 14.387554 33.259842 -19.655027 0.000000 0.000000 0.000000 -7.125000 0.000000 0.000000 -13.779000 49.714611 1.629111 0.000000 0.000000 0.000000 -5.778508 -2.148991 17.683952 -13.260088 -21.667155 -2.548530 -14.467112 18.884631 23.691952 0.000000 0.000000 0.000000 7.125000 0.000000 0.000000 15.434275 53.692630 -3.360996
42.873877 17.749112 5.331021 -118.495516 -82.764606 129.860679 0.000000 0.000000 0.000000 -8.264540 -6.135902 -6.445214 0.414753 4.133950 11.453827 0.350638 5.504956 -14.565355 0.126813 -2.295587 -6.323350 0.000000 0.000000 0.000000 29.694827 8.506291 -8.973466 -0.743715 -5.509032 15.366211 -0.229565 -6.884733 -14.082763 -0.499423 -4.530452 12.574079 4.725505 -2.161054 -5.997960 3.532568 -3.282982 -3.616159 0.814319 -1.750862 -0.426305 -13.481126 -9.501837 -13.643742 9.929707 -11.910609 13.244002 4.048320 -5.605264 7.736141 0.000000 0.000000 0.000000 -2.314447 2.506834 -2.023416 13.265734 -21.675337 2.550616 14.402591 33.270096 -19.657587 0.000000 0.000000 0.000000 -7.125000 0.000000 0.000000 -13.765609 49.719343 1.629187 0.000000 0.000000 0.000000 -6.043137 -1.643196 18.665184 -13.527621 -22.055320 -2.648115 -14.267215 18.079446 23.868836 0.000000 0.000000 0.000000 7.125000 0.000000 0.000000 15.719131 53.828068 -3.478041
42.856002 17.744094 5.314454 -118.702599 -82.708489 130.108907 0.000000 0.000000 0.000000 -8.161428 -6.123038 -6.612272 0.439570 4.254101 11.792598 0.370150 5.450830 -14.790375 0.084060 -1.846093 -5.081183 0.000000 0.000000 0.000000 29.797525 8.524785 -8.961808 -0.748737 -5.526921 15.417801 -0.243317 -6.767845 -14.171157 -0.505283 -4.556531 12.648024 4.806796 -2.085464 -6.126514 3.451790 -3.198603 -3.420319 0.678539 -1.700733 -0.159970 -13.365808 -9.613331 -14.105803 10.066437 -12.050891 13.260710 4.038312 -5.638936 7.840608 0.000000 0.000000 0.000000 -2.106839 2.093320 -2.072997 13.226364 -21.617901 2.536113 14.363930 33.323994 -19.658632 0.000000 0.000000 0.000000 -7.125000 0.000000 0.000000 -13.802843 49.714583 1.632067 0.000000 0.000000 0.000000 -5.809760 -1.974955 18.490392 -13.465503 -21.965474 -2.624898 -14.346326 18.227917 24.141278 0.000000 0.000000 0.000000 7.125000 0.000000 0.000000 15.776385 54.107528 -3.600257
42.839776 17.739289 5.297994 -118.646755 -82.662746 130.079569 0.000000 0.000000 0.000000 -8.056549 -6.164764 -6.868000 0.479326 4.439437 12.316528 0.391707 5.414009 -15.053175 0.104466 -2.076918 -5.718544 0.000000 0.000000 0.000000 29.905626 8.539888 -8.923948 -0.750623 -5.533941 15.437917 -0.252149 -6.690311 -14.225674 -0.508757 -4.572125 12.692031 4.760285 -1.990878 -5.757235 3.471298 -3.038532 -3.549352 0.752916 -1.627642 -0.491316 -13.198026 -9.697567 -14.370688 9.877380 -12.148213 13.451702 3.924440 -5.682797 7.937551 0.000000 0.000000 0.000000 -2.072848 2.175216 -2.242785 13.214603 -21.600830 2.531713 14.420313 33.445115 -19.903871 0.000000 0.000000 0.000000 -7.125000 0.000000 0.000000 -13.842332 49.965704 1.723539 0.000000 0.000000 0.000000 -5.760434 -1.737542 18.333575 -13.467457 -21.968257 -2.625578 -14.627601 18.518746 24.876535 0.000000 0.000000 0.000000 7.125000 0.000000 0.000000 15.874179 54.875174 -3.924348
42.824963 17.733995 5.280011 -118.608224 -82.591330 130.068985 0.000000 0.000000 0.000000 -7.908777 -6.223956 -7.142807 0.522265 4.631003 12.859130 0.416048 5.361488 -15.334549 0.114217 -2.165883 -5.964938 0.000000 0.000000 0.000000 30.036292 8.514330 -8.920422 -0.754429 -5.547491 15.477045 -0.264288 -6.565808 -14.283900 -0.512665 -4.589242 12.740541 5.082684 -2.056556 -6.654534 3.303481 -3.224752 -3.029342 0.335774 -1.694443 0.511420 -13.188977 -9.581654 -14.131371 10.306475 -12.038638 12.783179 4.093949 -5.605420 7.692289 0.000000 0.000000 0.000000 -1.716454 1.510695 -1.967378 13.207222 -21.590150 2.529037 14.548723 33.403454 -20.002526 0.000000 0.000000 0.000000 -7.125000 0.000000 0.000000 -13.757836 50.083125 1.753010 0.000000 0.000000 0.000000 -5.365359 -2.426777 18.544835 -13.366933 -21.822432 -2.588163 -14.236257 18.404262 23.975658 0.000000 0.000000 0.000000 7.125000 0.000000 0.000000 15.802833 53.926201 -3.535573
42.807987 17.727152 5.262197 -118.617800 -82.460955 130.109830 0.000000 0.000000 0.000000 -7.712262 -6.216407 -7.473265 0.575889 4.858920 13.506778 0.443075 5.305253 -15.640418 0.084470 -1.873946 -5.157419 0.000000 0.000000 0.000000 30.242895 8.550825 -8.871319 -0.756885 -5.556198 15.502023 -0.273235 -6.478325 -14.330603 -0.507021 -4.564415 12.670227 5.213287 -2.163577 -6.831770 3.379822 -3.391889 -3.055260 0.323755 -1.781537 0.575377 -13.412868 -9.367295 -13.532878 10.452776 -11.772828 12.439714 4.238663 -5.498976 7.468017 0.000000 0.000000 0.000000 -1.802795 1.768419 -1.542586 13.287606 -21.707152 2.558659 14.567532 33.325740 -19.971043 0.000000 0.000000 0.000000 -7.125000 0.000000 0.000000 -13.727789 50.054841 1.739377 0.000000 0.000000 0.000000 -5.295009 -2.412637 18.815825 -13.208769 -21.592225 -2.529656 -14.057428 18.646583 23.710883 0.000000 0.000000 0.000000 7.125000 0.000000 0.000000 15.849306 53.636065 -3.432738
42.792776 17.721343 5.244447 -118.379730 -82.355425 129.893314 0.000000 0.000000 0.000000 -7.512177 -6.259805 -7.870286 0.642196 5.126220 14.269038 0.469319 5.246117 -15.928491 0.097684 -2.015688 -5.549169 0.000000 0.000000 0.000000 30.435923 8.573094 -8.836286 -0.760468 -5.569027 15.538935 -0.283049 -6.402418 -14.402128 -0.517296 -4.609964 12.799324 5.280297 -2.101008 -5.924379 3.442362 -3.227472 -3.486102 0.417122 -1.727765 -0.369162 -13.344559 -9.434056 -13.912443 10.201017 -11.832115 12.975851 4.120479 -5.530520 7.694726 0.000000 0.000000 0.000000 -1.848161 2.382813 -1.778788 13.375620 -21.835120 2.591322 14.517850 33.205582 -20.039182 0.000000 0.000000 0.000000 -7.125000 0.000000 0.000000 -13.801336 50.114617 1.769585 0.000000 0.000000 0.000000 -5.247726 -1.864733 18.663386 -13.163821 -21.526723 -2.513092 -14.036038 18.820760 23.599701 0.000000 0.000000 0.000000 7.125000 0.000000 0.000000 15.815827 53.524049 -3.381468
42.776536 17.715341 5.227795 -118.326770 -82.261812 129.840077 0.000000 0.000000 0.000000 -7.352180 -6.312986 -8.285413 0.720824 5.424511 15.123595 0.501325 5.155000 -16.255836 0.104100 -2.080227 -5.727449 0.000000 0.000000 0.000000 30.597845 8.568914 -8.831846 -0.772543 -5.612228 15.663337 -0.298297 -6.278402 -14.506085 -0.514492 -4.597562 12.764157 5.269518 -2.015306 -6.066535 3.485106 -3.133237 -3.232412 0.457177 -1.667969 -0.021755 -13.211069 -9.510412 -14.209771 10.158233 -11.895625 12.781913 4.066331 -5.546425 7.678827 0.000000 0.000000 0.000000 -1.809602 1.909401 -1.931954 13.343590 -21.788549 2.579387 14.542831 33.237885 -19.925458 0.000000 0.000000 0.000000 -7.125000 0.000000 0.000000 -13.734218 50.005911 1.723831 0.000000 0.000000 0.000000 -5.418897 -1.851284 19.012399 -13.319056 -21.752817 -2.570312 -14.115499 18.426370 23.970225 0.000000 0.000000 0.000000 7.125000 0.000000 0.000000 15.920081 53.898584 -3.552047
